<?xml version="1.0" encoding="utf-8"?>
<!-- Generator: Adobe Illustrator 19.1.0, SVG Export Plug-In . SVG Version: 6.00 Build 0)  -->
<svg version="1.1" xmlns="http://www.w3.org/2000/svg" xmlns:xlink="http://www.w3.org/1999/xlink" x="0px" y="0px"
	 viewBox="-1003 573 512 512" style="enable-background:new -1003 573 512 512;" xml:space="preserve">
<style type="text/css">
	.st0{fill:#FFFFFF;stroke:#000000;stroke-miterlimit:10;}
</style>
<g id="Layer_2">
	<circle class="st0" cx="-745.5" cy="831.5" r="197.5"/>
</g>
<g id="Layer_1">
	<path id="github-2-circle-outline-icon" d="M-747,663c44.3,0,86,17.3,117.4,48.6c31.4,31.4,48.6,73,48.6,117.4s-17.3,86-48.6,117.4
		C-661,977.7-702.7,995-747,995s-86-17.3-117.4-48.6C-895.7,915-913,873.3-913,829s17.3-86,48.6-117.4C-833,680.3-791.3,663-747,663
		 M-747,623c-113.8,0-206,92.2-206,206s92.2,206,206,206s206-92.2,206-206S-633.2,623-747,623L-747,623z M-611.8,839.5l0.2-2.5
		c-14.8-1.4-29.6-1.6-43.9-0.5c2.3-7.4,3.5-15.7,3.4-25.1c-0.2-20.1-6.9-35.7-17.4-48.7c2-12.2,0.5-24.4-3.3-36.7
		c-15,1.2-28.5,6.2-40.6,14.7c-22.5-4.6-45-4.9-67.5,0c-14-9.5-27.8-14.1-41.4-14.7c-4,13.5-4.6,26.7-1.2,39.8
		c-11.8,12.6-16.4,27.8-16.2,44.7c0.1,9.7,1.6,18.3,4.4,25.9c-14.1-1-28.6-0.9-43.2,0.5l0.2,2.5c14.9-1.4,29.7-1.6,44-0.4
		c0.5,1.3,1.1,2.6,1.7,3.8c-15.6-0.4-29.6,0.9-42.7,4.2l0.6,2.4c13.3-3.3,27.6-4.6,43.5-4.1c10.5,18.7,30.8,29.7,60.3,33.2
		c-6.9,5.6-10.5,12.1-11.5,19.6c0,0-3.1,0-15.6,0c-21,0-26.7-26.8-48.5-24.1c21.1,10.5,16.9,43.9,50.6,43.9c11.3,0,13.8,0,14.2,0
		v30.6c0.2,5-2,8.3-5.5,10.6c12.1,1.2,21.2-4.8,21.2-12.2s0-36.9,0-40.5s3.8-3.9,3.8-3.9v47.3c0.2,4.7-2.1,7.4-4.6,9.9
		c10.6,0.4,20.7-1.7,21.1-10.8c0,0,0-43,0-45.3s3.7-2.3,3.7,0s0,43.1,0,43.1c0.1,7.6,6.7,13.8,20.7,12.9c-3.7-3-4.9-6.1-4.9-10.5
		c0-4.4,0-46.8,0-46.8s3.9-0.2,3.9,3.9c0,4.1,0,32.6,0,39.5c0,8.8,10.5,12.4,22.6,12.1c-3.9-3-6.6-6.5-6.6-11.2v-47.4
		c-0.4-7-3.2-13.5-8.8-19.7c27-4.1,46.4-14.9,56.1-34.2c16-0.5,30.3,0.8,43.6,4l0.6-2.4c-13.2-3.2-27.3-4.6-43-4.2
		c0.5-1.2,1.1-2.5,1.5-3.7C-641.7,838-626.8,838.1-611.8,839.5z M-837,878c-0.7,0-1.2-0.4-1.2-0.9c0-0.5,0.5-0.9,1.2-0.9
		c0.7,0,1.2,0.4,1.2,0.9C-835.8,877.6-836.4,878-837,878z M-833.2,880.6c-0.7,0-1.3-0.4-1.3-0.9c0-0.5,0.6-0.9,1.3-0.9
		c0.7,0,1.3,0.4,1.3,0.9C-831.9,880.2-832.5,880.6-833.2,880.6z M-829.4,883.9c-0.9,0-1.6-0.5-1.6-1.1c0-0.6,0.7-1.1,1.6-1.1
		c0.9,0,1.6,0.5,1.6,1.1C-827.8,883.4-828.5,883.9-829.4,883.9z M-825.7,888c-1,0-1.8-0.6-1.8-1.3c0-0.7,0.8-1.3,1.8-1.3
		c1,0,1.8,0.6,1.8,1.3C-823.8,887.4-824.7,888-825.7,888z M-821.6,892.5c-1.1,0-2-0.6-2-1.4s0.9-1.4,2-1.4s2,0.6,2,1.4
		S-820.4,892.5-821.6,892.5z M-816.8,897.1c-1.2,0-2.3-0.7-2.3-1.6c0-0.9,1-1.6,2.3-1.6c1.2,0,2.3,0.7,2.3,1.6
		C-814.6,896.4-815.6,897.1-816.8,897.1z M-810.4,901.5c-1.4,0-2.5-0.8-2.5-1.8s1.1-1.8,2.5-1.8c1.4,0,2.5,0.8,2.5,1.8
		S-809,901.5-810.4,901.5z M-802.4,903.9c-1.4,0-2.5-0.8-2.5-1.8c0-1,1.1-1.8,2.5-1.8c1.4,0,2.5,0.8,2.5,1.8
		C-799.9,903.1-801,903.9-802.4,903.9z M-794,904.1c-1.4,0-2.5-0.8-2.5-1.8c0-1,1.1-1.8,2.5-1.8c1.4,0,2.5,0.8,2.5,1.8
		C-791.5,903.3-792.6,904.1-794,904.1z M-785.7,904.3c-1.4,0-2.5-0.8-2.5-1.8c0-1,1.1-1.8,2.5-1.8c1.4,0,2.5,0.8,2.5,1.8
		C-783.2,903.5-784.4,904.3-785.7,904.3z"/>
</g>
</svg>
