<?xml version="1.0" encoding="utf-8"?>
<!-- Generator: Adobe Illustrator 19.1.0, SVG Export Plug-In . SVG Version: 6.00 Build 0)  -->
<svg version="1.1" xmlns="http://www.w3.org/2000/svg" xmlns:xlink="http://www.w3.org/1999/xlink" x="0px" y="0px"
	 viewBox="-828 329 863 1000" style="enable-background:new -828 329 863 1000;" xml:space="preserve">
<style type="text/css">
	.st0{fill:#00D8FF;}
	.st1{fill:#222222;}
</style>
<g id="Layer_2">
	<polyline class="st0" points="-828.1,582.3 -396.1,333.7 35.1,582.3 35.1,1080.6 -396.5,1329 -828.1,1080.6 -828.1,582.3 
		-828.1,582.3 -828.1,582.3 	"/>
</g>
<g id="Layer_1">
	<g transform="translate(0.000000,1000.000000) scale(0.100000,-0.100000)">
		<path class="st1" d="M-6024,5273l-2056-1187V1710V-665l2052-1184c1129-651,2057-1184,2063-1184s934,533,2063,1184L150-665v2375
			v2376l-2052,1184c-1129,651-2056,1185-2059,1186C-3964,6458-4893,5925-6024,5273z M-2294,4945c133-34,243-107,331-219
			c245-314,304-896,161-1606c-17-85-31-163-32-173c-1-14,36-30,189-81c737-247,1217-610,1321-997c21-77,23-214,5-289
			c-7-30-35-100-61-155c-170-351-648-677-1317-897l-125-41l5-31c3-17,15-75,27-129c158-742,74-1391-218-1686
			c-107-108-219-162-381-181c-391-48-943,219-1480,715l-83,77l-52-49c-349-337-789-606-1151-704c-141-39-347-50-463-25
			c-262,55-454,271-537,606c-41,165-50,253-50,495c0,283,24,490,90,779c25,109,25,126,1,126c-7,0-68,18-137,41
			c-467,153-860,377-1100,626c-166,172-243,313-270,498c-35,234,99,499,364,722c246,206,645,407,1061,534l108,33l-6,30
			c-3,17-19,96-36,176c-57,273-74,438-73,710c0,207,3,263,21,363c75,408,251,648,532,724c104,28,306,24,440-9
			c356-89,723-304,1128-661l123-108l72,68c368,348,787,607,1130,698C-2583,4971-2425,4978-2294,4945z"/>
		<path class="st1" d="M-2600,4645c-293-55-730-316-1057-629l-84-81l102-115c141-160,302-362,461-581l56-76l108-12
			c207-23,522-71,694-106c95-20,174-35,175-33c15,15,67,290,91,483c19,156,22,473,5,595c-41,292-149,497-287,544
			C-2405,4657-2512,4662-2600,4645z"/>
		<path class="st1" d="M-5579,4634c-61-16-93-37-144-93c-69-77-122-207-153-377c-22-122-25-466-6-624c24-194,84-505,100-522
			c4-3,45,2,92,13c145,32,487,87,680,109c102,11,190,23,196,25s58,66,114,142c139,186,230,299,387,479l131,152l-46,44
			C-4707,4437-5280,4715-5579,4634z"/>
		<path class="st1" d="M-4092,3568c-124-144-162-189-255-308l-51-65h433h433l-21,29c-82,116-394,486-408,486
			C-3965,3710-4024,3646-4092,3568z"/>
		<path class="st1" d="M-4415,2880c-66-4-142-8-168-9l-48-1l-103-157c-178-271-346-563-491-852l-75-151l75-151
			c137-275,309-573,491-851l102-156l69-8c90-11,1028-11,1165-1l106,9l110,171c179,281,355,590,505,885l52,104l-80,156
			c-141,275-368,664-537,917l-53,80l-75,7C-3486,2882-4280,2889-4415,2880z M-3760,2334c373-124,555-557,380-903
			c-85-169-220-282-405-341c-99-31-261-31-360,0c-184,58-320,172-403,336c-49,97-66,175-65,299c0,94,4,122,28,194
			c30,88,79,173,141,241c84,93,237,176,366,200C-3990,2375-3852,2364-3760,2334z"/>
		<path class="st1" d="M-5240,2799c-186-30-444-81-453-89c-12-11,197-594,223-623c4-5,38,49,75,120c75,141,206,367,296,512
			c33,51,59,95,59,97C-5040,2825-5130,2817-5240,2799z"/>
		<path class="st1" d="M-2887,2813c2-5,52-87,110-183s153-260,211-364l105-189l22,49c72,165,216,571,206,581c-11,10-271,61-481,93
			C-2852,2821-2894,2824-2887,2813z"/>
		<path class="st1" d="M-6180,2581c-296-99-533-210-730-342c-195-131-308-249-373-386c-26-56-31-80-31-139c0-64,4-81,43-160
			c38-78,59-104,160-204c174-173,385-306,686-433c128-54,413-153,418-146c2,2,27,76,56,164c60,181,173,474,250,644
			c28,63,51,121,51,128c0,8-30,82-66,166c-89,204-164,399-230,592c-40,121-58,161-71,162C-6027,2629-6100,2608-6180,2581z"/>
		<path class="st1" d="M-1964,2512c-54-165-135-375-232-602l-84-196l75-168c92-206,190-450,246-616c23-69,45-129,49-133
			c18-21,359,106,585,217c353,175,576,358,673,555c32,64,36,83,36,146c0,64-4,81-38,151c-32,64-59,98-145,185
			c-208,207-535,387-956,526C-1945,2640-1920,2648-1964,2512z"/>
		<path class="st1" d="M-2482,1309c-14-24-64-116-113-204c-48-88-135-237-192-332c-56-95-103-175-103-178c0-6,13-4,185,21
			c128,18,474,82,486,90c14,8-116,364-224,613l-14,34L-2482,1309z"/>
		<path class="st1" d="M-5530,1185c-69-175-154-413-164-461l-7-31l78-16c182-39,593-100,593-89c0,2-40,68-88,146
			c-88,141-242,408-300,521c-17,33-35,66-40,74C-5465,1338-5486,1296-5530,1185z"/>
		<path class="st1" d="M-2270,378c-240-49-569-98-766-114l-81-7l-101-141c-117-163-331-433-439-554c-41-46-73-87-71-92
			c2-4,41-43,88-85c377-342,751-559,1055-611c161-28,268-3,356,85s147,228,185,436c22,124,25,476,6,635c-24,188-76,458-91,470
			C-2132,403-2196,393-2270,378z"/>
		<path class="st1" d="M-5793,374c-7-24-43-191-57-264c-25-133-41-288-47-460c-9-294,21-486,102-656c54-112,126-185,207-209
			c64-19,211-19,298-1c298,63,692,295,1032,607l88,80l-116,132c-135,153-303,362-427,529l-86,116l-53,6c-351,38-537,63-743,102
			c-71,14-144,27-161,31C-5782,391-5789,388-5793,374z"/>
		<path class="st1" d="M-4390,221c0-13,273-345,384-466c49-54,56-58,68-44c7,9,61,72,119,140c94,111,195,237,271,339l27,35h-435
			C-4195,225-4390,223-4390,221z"/>
	</g>
</g>
</svg>
